<?xml version="1.0" encoding="utf-8"?>
<!-- Generator: Adobe Illustrator 16.0.0, SVG Export Plug-In . SVG Version: 6.00 Build 0)  -->
<!DOCTYPE svg PUBLIC "-//W3C//DTD SVG 1.1//EN" "http://www.w3.org/Graphics/SVG/1.1/DTD/svg11.dtd">
<svg version="1.1" id="Layer_1" xmlns="http://www.w3.org/2000/svg" xmlns:xlink="http://www.w3.org/1999/xlink" x="0px" y="0px"
	 width="55px" height="40px" viewBox="0 0 55 40" enable-background="new 0 0 55 40" xml:space="preserve">
<path fill="#EF3B3A" d="M54.792,15.827l-6.47-14.4C47.943,0.587,47.092,0,46.103,0c-1.155,0-2.12,0.798-2.366,1.867l-6.392,27.818
	L28.936,9.488C28.573,8.615,27.704,8,26.691,8c-1.001,0-1.861,0.6-2.23,1.456l-7.644,17.642l-4.129-8.17
	c-0.398-0.788-1.221-1.328-2.172-1.328c-0.749,0-1.42,0.336-1.864,0.865l-8.088,9.599C0.212,28.482,0,29.016,0,29.6
	C0,30.925,1.087,32,2.427,32c0.749,0,1.42-0.336,1.864-0.864l5.712-6.78l4.81,9.516c0.398,0.788,1.221,1.328,2.172,1.328
	c1.001,0,1.861-0.6,2.231-1.456l7.429-17.147l9.125,21.917C36.133,39.386,37.002,40,38.015,40c1.155,0,2.12-0.799,2.366-1.866
	l6.471-28.16l3.504,7.799c0.377,0.84,1.229,1.427,2.218,1.427c1.34,0,2.427-1.076,2.427-2.401
	C55,16.454,54.926,16.125,54.792,15.827z"/>
</svg>
