<?xml version="1.0" encoding="utf-8"?>
<!-- Generator: Adobe Illustrator 16.0.0, SVG Export Plug-In . SVG Version: 6.00 Build 0)  -->
<!DOCTYPE svg PUBLIC "-//W3C//DTD SVG 1.1//EN" "http://www.w3.org/Graphics/SVG/1.1/DTD/svg11.dtd">
<svg version="1.1" id="Layer_1" xmlns="http://www.w3.org/2000/svg" xmlns:xlink="http://www.w3.org/1999/xlink" x="0px" y="0px"
	 width="55px" height="52px" viewBox="0 0 55 52" enable-background="new 0 0 55 52" xml:space="preserve">
<path fill="#EF3B3A" d="M50.638,31.667c0.725-2.304,1.126-4.75,1.126-7.292C51.765,10.935,40.88,0,27.5,0
	C14.12,0,3.235,10.935,3.235,24.375c0,2.542,0.401,4.988,1.126,7.292C1.711,33.749,0,36.984,0,40.626C0,46.908,5.069,52,11.323,52
	h1.618c1.787,0,3.235-1.455,3.235-3.25V32.5c0-1.795-1.449-3.25-3.235-3.25h-1.618c-0.867,0-1.708,0.106-2.52,0.292
	c-0.453-1.648-0.716-3.375-0.716-5.167c0-10.752,8.708-19.5,19.412-19.5c10.704,0,19.412,8.748,19.412,19.5
	c0,1.792-0.262,3.518-0.716,5.167c-0.812-0.185-1.652-0.292-2.52-0.292h-1.618c-1.787,0-3.235,1.455-3.235,3.25v16.25
	c0,1.795,1.449,3.25,3.235,3.25h1.618C49.931,52,55,46.908,55,40.626C55,36.984,53.289,33.749,50.638,31.667z M11.323,47.126
	c-3.568,0-6.471-2.916-6.471-6.5c0-3.585,2.902-6.5,6.471-6.5V47.126z M43.676,47.126v-13c3.569,0,6.471,2.916,6.471,6.5
	C50.147,44.21,47.245,47.126,43.676,47.126z"/>
</svg>
