<?xml version="1.0" encoding="utf-8"?>
<!-- Generator: Adobe Illustrator 16.0.0, SVG Export Plug-In . SVG Version: 6.00 Build 0)  -->
<!DOCTYPE svg PUBLIC "-//W3C//DTD SVG 1.1//EN" "http://www.w3.org/Graphics/SVG/1.1/DTD/svg11.dtd">
<svg version="1.1" id="Layer_1" xmlns="http://www.w3.org/2000/svg" xmlns:xlink="http://www.w3.org/1999/xlink" x="0px" y="0px"
	 width="54px" height="54px" viewBox="0 0 54 54" enable-background="new 0 0 54 54" xml:space="preserve">
<path fill-rule="evenodd" clip-rule="evenodd" fill="#EF3B3A" d="M47.617,42.453c-0.496,0.497-1.145,0.747-1.796,0.747
	c-0.644,0-1.29-0.246-1.785-0.735c-0.99-0.985-0.997-2.589-0.011-3.581c3.167-3.187,4.912-7.408,4.912-11.883
	c0-4.477-1.745-8.697-4.912-11.884c-0.986-0.992-0.979-2.596,0.011-3.581c0.494-0.49,1.14-0.735,1.785-0.735
	c0.651,0,1.3,0.249,1.796,0.747C51.732,15.692,54,21.18,54,27.001C54,32.821,51.732,38.309,47.617,42.453z M39.638,36.056
	c-0.475,0.397-1.052,0.592-1.625,0.592c-0.723,0-1.442-0.309-1.941-0.904c-0.898-1.073-0.758-2.668,0.313-3.566
	c1.543-1.292,2.427-3.179,2.427-5.176c0-1.998-0.885-3.885-2.427-5.177c-1.071-0.897-1.211-2.493-0.313-3.566
	c0.5-0.597,1.218-0.904,1.941-0.904c0.573,0,1.15,0.194,1.625,0.591c2.692,2.256,4.237,5.557,4.237,9.056
	C43.875,30.499,42.331,33.8,39.638,36.056z M27,54h-3.375L11.812,42.188H3.375C1.511,42.188,0,40.677,0,38.812V15.188
	c0-1.864,1.511-3.375,3.375-3.375h8.438L23.625,0H27c1.864,0,3.375,1.511,3.375,3.375v47.251C30.375,52.489,28.864,54,27,54z
	 M25.312,5.472L13.909,16.875H5.062v20.251h8.847l11.403,11.403V5.472z"/>
</svg>
